<svg width="206" height="36" viewBox="0 0 206 36" fill="none" xmlns="http://www.w3.org/2000/svg">
<rect width="206" height="36" rx="8" fill="url(#paint0_linear)"/>
<path d="M20.4051 27H31.4931C31.9131 27 32.1651 26.748 32.1651 26.328V23.92C32.1651 23.5 31.9131 23.248 31.4931 23.248H23.8491V9.472C23.8491 9.052 23.5971 8.8 23.1771 8.8H20.4051C19.9851 8.8 19.7331 9.052 19.7331 9.472V26.328C19.7331 26.748 19.9851 27 20.4051 27ZM33.4608 27H36.4288C36.7928 27 37.0448 26.832 37.1848 26.468L37.9688 24.48H45.0808L45.8648 26.468C46.0048 26.832 46.2568 27 46.6208 27H49.5888C50.0928 27 50.3168 26.664 50.1208 26.216L43.2888 9.332C43.1488 8.996 42.8688 8.8 42.5048 8.8H40.5168C40.1528 8.8 39.8728 8.996 39.7328 9.332L32.9288 26.216C32.7328 26.664 32.9568 27 33.4608 27ZM39.4248 20.728L41.4968 15.352L43.6248 20.728H39.4248ZM51.798 27H54.57C54.99 27 55.242 26.748 55.242 26.328V9.472C55.242 9.052 54.99 8.8 54.57 8.8H51.798C51.378 8.8 51.126 9.052 51.126 9.472V26.328C51.126 26.748 51.378 27 51.798 27ZM57.7326 27H60.5046C60.9246 27 61.1766 26.748 61.1766 26.328V19.748L66.3566 26.58C66.5526 26.86 66.8326 27 67.1686 27H70.3886C70.9486 27 71.1446 26.636 70.8086 26.188L64.5926 17.9L70.4726 9.612C70.7806 9.164 70.6126 8.8 70.0526 8.8H66.9166C66.5806 8.8 66.3006 8.94 66.1046 9.22L61.1766 15.968V9.472C61.1766 9.052 60.9246 8.8 60.5046 8.8H57.7326C57.3126 8.8 57.0606 9.052 57.0606 9.472V26.328C57.0606 26.748 57.3126 27 57.7326 27ZM72.1555 27H75.1235C75.4875 27 75.7395 26.832 75.8795 26.468L76.6635 24.48H83.7755L84.5595 26.468C84.6995 26.832 84.9515 27 85.3155 27H88.2835C88.7875 27 89.0115 26.664 88.8155 26.216L81.9835 9.332C81.8435 8.996 81.5635 8.8 81.1995 8.8H79.2115C78.8475 8.8 78.5675 8.996 78.4275 9.332L71.6235 26.216C71.4275 26.664 71.6515 27 72.1555 27ZM78.1195 20.728L80.1915 15.352L82.3195 20.728H78.1195Z" fill="white"/>
<path d="M94.9781 27H97.7501C98.1701 27 98.4221 26.748 98.4221 26.328V17.2L101.894 24.452C102.062 24.816 102.314 24.956 102.678 24.956H104.386C104.75 24.956 105.002 24.816 105.17 24.452L108.642 17.2V26.328C108.642 26.748 108.894 27 109.314 27H112.086C112.506 27 112.758 26.748 112.758 26.328V9.472C112.758 9.052 112.506 8.8 112.086 8.8H109.146C108.782 8.8 108.53 8.94 108.362 9.276L103.518 18.936L98.7021 9.276C98.5341 8.94 98.2541 8.8 97.8901 8.8H94.9781C94.5581 8.8 94.3061 9.052 94.3061 9.472V26.328C94.3061 26.748 94.5581 27 94.9781 27ZM120.644 27.28C122.772 27.28 124.564 26.468 125.712 25.152C125.964 24.872 125.88 24.564 125.516 24.284L123.864 23.052C123.528 22.8 123.248 22.884 122.94 23.136C122.492 23.528 121.792 23.892 120.644 23.892C119.328 23.892 118.264 23.08 117.928 21.624H126.048C126.468 21.624 126.72 21.372 126.72 20.952V20.56C126.72 16.724 124.368 13.868 120.504 13.868C116.584 13.868 114.064 16.724 114.064 20.56C114.064 24.396 116.668 27.28 120.644 27.28ZM117.984 19.132C118.348 17.816 119.216 17.004 120.504 17.004C121.848 17.004 122.632 17.9 122.968 19.132H117.984ZM128.668 27H131.3C131.72 27 131.972 26.748 131.972 26.328V19.692C131.972 17.592 133.456 17.396 133.988 17.396C134.492 17.396 136.06 17.592 136.06 19.692V26.328C136.06 26.748 136.312 27 136.732 27H139.364C139.784 27 140.036 26.748 140.036 26.328V19.692C140.036 17.592 141.52 17.396 142.052 17.396C142.556 17.396 144.124 17.592 144.124 19.692V26.328C144.124 26.748 144.376 27 144.796 27H147.428C147.848 27 148.1 26.748 148.1 26.328V19.132C148.1 15.072 145.524 13.924 143.312 13.924C141.94 13.924 140.26 14.372 139.168 15.772C138.216 14.4 136.648 13.924 135.248 13.924C134.128 13.924 132.896 14.344 131.972 15.296V14.708C131.972 14.344 131.72 14.12 131.3 14.12H128.668C128.248 14.12 127.996 14.372 127.996 14.792V26.328C127.996 26.748 128.248 27 128.668 27ZM157.262 27.224C160.734 27.224 163.31 24.396 163.31 20.56C163.31 16.64 160.734 13.924 157.262 13.924C155.834 13.924 154.742 14.4 153.93 15.184V9.472C153.93 9.052 153.678 8.8 153.258 8.8H150.626C150.206 8.8 149.954 9.052 149.954 9.472V26.328C149.954 26.748 150.206 27 150.626 27H153.258C153.678 27 153.93 26.748 153.93 26.328V25.936C154.742 26.748 155.834 27.224 157.262 27.224ZM156.674 23.472C154.994 23.472 153.93 22.24 153.93 20.56C153.93 18.88 154.994 17.676 156.674 17.676C158.354 17.676 159.446 18.88 159.446 20.56C159.446 22.24 158.354 23.472 156.674 23.472ZM170.687 27.28C172.815 27.28 174.607 26.468 175.755 25.152C176.007 24.872 175.923 24.564 175.559 24.284L173.907 23.052C173.571 22.8 173.291 22.884 172.983 23.136C172.535 23.528 171.835 23.892 170.687 23.892C169.371 23.892 168.307 23.08 167.971 21.624H176.091C176.511 21.624 176.763 21.372 176.763 20.952V20.56C176.763 16.724 174.411 13.868 170.547 13.868C166.627 13.868 164.107 16.724 164.107 20.56C164.107 24.396 166.711 27.28 170.687 27.28ZM168.027 19.132C168.391 17.816 169.259 17.004 170.547 17.004C171.891 17.004 172.675 17.9 173.011 19.132H168.027ZM178.71 27H181.342C181.762 27 182.014 26.748 182.014 26.328V21.456C182.014 18.208 184.506 17.76 185.878 17.676C186.326 17.676 186.55 17.424 186.55 17.004V14.624C186.55 14.176 186.298 13.924 185.85 13.98C184.394 14.176 182.994 14.904 182.014 16.444V14.792C182.014 14.372 181.762 14.12 181.342 14.12H178.71C178.29 14.12 178.038 14.372 178.038 14.792V26.328C178.038 26.748 178.29 27 178.71 27Z" fill="#FFAA40"/>
<defs>
<linearGradient id="paint0_linear" x1="-11.536" y1="36" x2="216.462" y2="-3.79315" gradientUnits="userSpaceOnUse">
<stop stop-color="#653F90"/>
<stop offset="0.504914" stop-color="#A473DB"/>
<stop offset="1" stop-color="#653F90"/>
</linearGradient>
</defs>
</svg>
