<svg width="24" height="24" viewBox="0 0 24 24" fill="none" xmlns="http://www.w3.org/2000/svg">
<path fill-rule="evenodd" clip-rule="evenodd" d="M17.8918 11.4696C17.8918 12.9546 17.4342 14.3293 16.6565 15.4516C16.6752 15.4673 16.6933 15.484 16.7108 15.5015L19.1335 17.9242C19.468 18.2587 19.468 18.8011 19.1335 19.1356C18.799 19.4701 18.2567 19.4701 17.9222 19.1356L15.5126 16.726C14.3599 17.7223 12.8745 18.322 11.2535 18.322C7.5873 18.322 4.61523 15.2541 4.61523 11.4696C4.61523 7.68512 7.5873 4.61719 11.2535 4.61719C14.9197 4.61719 17.8918 7.68512 17.8918 11.4696ZM11.2534 16.609C13.9735 16.609 16.1785 14.308 16.1785 11.4696C16.1785 8.63128 13.9735 6.33033 11.2534 6.33033C8.53326 6.33033 6.32819 8.63128 6.32819 11.4696C6.32819 14.308 8.53326 16.609 11.2534 16.609Z" fill="#653F90"/>
<path d="M16.6565 15.4516L16.5332 15.3662L16.4555 15.4784L16.5599 15.5663L16.6565 15.4516ZM16.7108 15.5015L16.6048 15.6076L16.6048 15.6076L16.7108 15.5015ZM19.1335 17.9242L19.2396 17.8181L19.2396 17.8181L19.1335 17.9242ZM17.9222 19.1356L18.0282 19.0295L18.0282 19.0295L17.9222 19.1356ZM15.5126 16.726L15.6186 16.6199L15.52 16.5213L15.4145 16.6125L15.5126 16.726ZM16.7798 15.5371C17.5745 14.3902 18.0418 12.9858 18.0418 11.4696H17.7418C17.7418 12.9235 17.2939 14.2685 16.5332 15.3662L16.7798 15.5371ZM16.8169 15.3954C16.7963 15.3749 16.7751 15.3554 16.7532 15.337L16.5599 15.5663C16.5753 15.5793 16.5902 15.5931 16.6048 15.6076L16.8169 15.3954ZM19.2396 17.8181L16.8169 15.3954L16.6048 15.6076L19.0275 18.0303L19.2396 17.8181ZM19.2396 19.2416C19.6327 18.8485 19.6327 18.2112 19.2396 17.8181L19.0275 18.0303C19.3034 18.3062 19.3034 18.7536 19.0275 19.0295L19.2396 19.2416ZM17.8161 19.2416C18.2092 19.6347 18.8465 19.6347 19.2396 19.2416L19.0275 19.0295C18.7515 19.3054 18.3042 19.3054 18.0282 19.0295L17.8161 19.2416ZM15.4065 16.832L17.8161 19.2416L18.0282 19.0295L15.6186 16.6199L15.4065 16.832ZM11.2535 18.472C12.9124 18.472 14.4321 17.8581 15.6107 16.8394L15.4145 16.6125C14.2876 17.5865 12.8367 18.172 11.2535 18.172V18.472ZM4.46523 11.4696C4.46523 15.3324 7.5 18.472 11.2535 18.472V18.172C7.67459 18.172 4.76523 15.1758 4.76523 11.4696H4.46523ZM11.2535 4.46719C7.5 4.46719 4.46523 7.6068 4.46523 11.4696H4.76523C4.76523 7.76344 7.67459 4.76719 11.2535 4.76719V4.46719ZM18.0418 11.4696C18.0418 7.6068 15.007 4.46719 11.2535 4.46719V4.76719C14.8324 4.76719 17.7418 7.76344 17.7418 11.4696H18.0418ZM16.0285 11.4696C16.0285 14.2313 13.8847 16.459 11.2534 16.459V16.759C14.0623 16.759 16.3285 14.3848 16.3285 11.4696H16.0285ZM11.2534 6.48033C13.8847 6.48033 16.0285 8.70804 16.0285 11.4696H16.3285C16.3285 8.55452 14.0623 6.18033 11.2534 6.18033V6.48033ZM6.47819 11.4696C6.47819 8.70804 8.62206 6.48033 11.2534 6.48033V6.18033C8.44447 6.18033 6.17819 8.55452 6.17819 11.4696H6.47819ZM11.2534 16.459C8.62206 16.459 6.47819 14.2313 6.47819 11.4696H6.17819C6.17819 14.3848 8.44447 16.759 11.2534 16.759V16.459Z" fill="#653F90"/>
</svg>
